<?xml version="1.0"?><svg width="300" height="300" xmlns="http://www.w3.org/2000/svg">
 <g>
  <title>Layer 1</title>
  <g id="Layer_1">
   <g id="svg_1">
    <g id="surface0">
     <path d="m108.421997,50.727001c10.115005,-4.038002 21.298004,-1.269001 30.865997,2.969997c10.67601,5.017002 21.583008,12.316002 25.963013,23.775002c1.964996,4.676003 0.674988,10.131996 -2.701004,13.796997c-2.656006,2.269005 -6.434006,1.636002 -9.617004,1.315002c-7.225006,-1.551003 -11.649002,-7.977997 -17.263,-12.187996c-4.867004,-4.284004 -10.047997,-8.922005 -16.636002,-10.107002c-5.876999,-0.971001 -10.981995,2.917999 -14.748993,6.951996c-5.669006,6.993004 -9.25,15.397003 -12.042007,23.882004c-1.813995,7.400002 -5.673996,14.460999 -5.209,22.270996c-0.551994,-7.203995 -2.606995,-14.215996 -2.803993,-21.454994c-0.368004,-9.334 0.815994,-18.720001 3.159996,-27.745003c4.299004,-9.671997 10.943001,-19.244999 21.031998,-23.466999z" stroke-width="0.1" stroke-miterlimit="10" stroke="#000000" fill="none" id="svg_2"/>
     <path d="m108.421997,50.727001c10.115005,-4.038002 21.298004,-1.269001 30.865997,2.969997c10.67601,5.017002 21.583008,12.316002 25.963013,23.775002c1.964996,4.676003 0.674988,10.131996 -2.701004,13.796997c-2.656006,2.269005 -6.434006,1.636002 -9.617004,1.315002c-7.225006,-1.551003 -11.649002,-7.977997 -17.263,-12.187996c-4.867004,-4.284004 -10.047997,-8.922005 -16.636002,-10.107002c-5.876999,-0.971001 -10.981995,2.917999 -14.748993,6.951996c-5.669006,6.993004 -9.25,15.397003 -12.042007,23.882004c-1.813995,7.400002 -5.673996,14.460999 -5.209,22.270996c-0.551994,-7.203995 -2.606995,-14.215996 -2.803993,-21.454994c-0.368004,-9.334 0.815994,-18.720001 3.159996,-27.745003c4.299004,-9.671997 10.943001,-19.244999 21.031998,-23.466999z" id="svg_3"/>
     <path d="m200.645996,56.912998c7.324005,-0.849998 15.021011,2.023003 19.936005,7.536999c3.334,4.104004 5.572998,9.274002 5.537003,14.615005c-0.645996,6.493996 -3.914001,12.910995 -9.367004,16.642998c-6.427994,4.556 -15.214996,5.504997 -22.447998,2.347c-10.746002,-4.083 -17.003998,-17.916 -11.481003,-28.364998c3.108002,-7.108002 10.272995,-11.733002 17.822998,-12.777004z" stroke-width="0.1" stroke-miterlimit="10" stroke="#000000" fill="none" id="svg_4"/>
     <path d="m200.645996,56.912998c7.324005,-0.849998 15.021011,2.023003 19.936005,7.536999c3.334,4.104004 5.572998,9.274002 5.537003,14.615005c-0.645996,6.493996 -3.914001,12.910995 -9.367004,16.642998c-6.427994,4.556 -15.214996,5.504997 -22.447998,2.347c-10.746002,-4.083 -17.003998,-17.916 -11.481003,-28.364998c3.108002,-7.108002 10.272995,-11.733002 17.822998,-12.777004z" id="svg_5"/>
     <path d="m276.882996,94.662003c0.433014,-0.024002 0.871002,-0.035004 1.313019,-0.027c-0.184021,3.851997 0.819977,7.700996 0.18399,11.537994c-1.016998,6.596001 -3.673004,12.791 -6.550018,18.764c-6.319977,14.098007 -18.270981,25.740005 -32.760986,31.219009c-6.651993,2.345993 -14.544006,2.166 -20.537994,-1.839005c-9.694,-6.328995 -17.318008,-15.983002 -20.652008,-27.125999c-2.110992,-6.018005 -2.18399,-13.245003 1.445007,-18.699005c1.815002,-2.389999 4.265991,-5.058998 7.544998,-4.879997c3.388,0.313004 6.416,2.348 8.46199,5c4.817001,6.322998 5.825012,14.546997 9.796005,21.298004c3.322006,4.354004 8.694,9.526001 14.632996,6.979004c7.157013,-3.026001 13.180008,-8.173004 19.000015,-13.220009c7.358002,-6.327995 12.479004,-14.775002 16.566986,-23.473c0.821014,-1.745003 1.394012,-3.604996 1.556,-5.533997z" stroke-width="0.1" stroke-miterlimit="10" stroke="#000000" fill="none" id="svg_6"/>
     <path d="m276.882996,94.662003c0.433014,-0.024002 0.871002,-0.035004 1.313019,-0.027c-0.184021,3.851997 0.819977,7.700996 0.18399,11.537994c-1.016998,6.596001 -3.673004,12.791 -6.550018,18.764c-6.319977,14.098007 -18.270981,25.740005 -32.760986,31.219009c-6.651993,2.345993 -14.544006,2.166 -20.537994,-1.839005c-9.694,-6.328995 -17.318008,-15.983002 -20.652008,-27.125999c-2.110992,-6.018005 -2.18399,-13.245003 1.445007,-18.699005c1.815002,-2.389999 4.265991,-5.058998 7.544998,-4.879997c3.388,0.313004 6.416,2.348 8.46199,5c4.817001,6.322998 5.825012,14.546997 9.796005,21.298004c3.322006,4.354004 8.694,9.526001 14.632996,6.979004c7.157013,-3.026001 13.180008,-8.173004 19.000015,-13.220009c7.358002,-6.327995 12.479004,-14.775002 16.566986,-23.473c0.821014,-1.745003 1.394012,-3.604996 1.556,-5.533997z" id="svg_7"/>
     <path d="m98.081001,135.091995c4.256996,-3.604996 10.543999,-3.25499 15.494995,-1.451996c4.974007,2.115005 10.214005,3.749008 14.754997,6.757004c7.05101,4.51799 13.789001,9.584 19.817001,15.403992c6.811005,5.506012 13.136002,11.64801 18.556,18.540009c4,4.705002 8.17601,10.201996 7.861008,16.718002c-2.955002,9.493988 -11.089996,16.434998 -19.553009,21.080994c-11.223999,5.707001 -23.742996,7.970993 -35.738991,11.473007c-5.188004,1.674988 -10.634003,2.284988 -16.028999,2.865997c-6.109001,0.330002 -12.251007,1.589996 -18.356003,0.509003c3.912003,-2.843002 8.648003,-4.108002 12.947998,-6.214005c12.347,-5.330002 23.968002,-12.164001 35.998001,-18.153c5.095993,-2.466995 10.087006,-5.611008 13.001007,-10.634003c-0.156006,-1.104004 -0.308014,-2.205002 -0.455002,-3.302994c-3.425003,-3.46701 -7.653,-5.945007 -12.011002,-8.044998c-5.085007,4.202988 -10.947006,7.399994 -15.631004,12.091995c-12.853996,9.567993 -27.062996,17.069 -40.751999,25.345993c-18.428001,10.35701 -35.862,22.431 -54.639999,32.177002c-1.094,0.391998 -2.215,0.697006 -3.362001,0.916c7.211,-7.856995 15.608,-14.543991 22.708002,-22.509003c10.245998,-10.731995 20.491997,-21.470001 31.181999,-31.763992c11.290001,-10.871002 22.263,-22.061996 32.725998,-33.733002c-4.413002,-4.080002 -10.111,-7.839005 -11.451996,-14.096008c-1.275002,-4.731995 -0.525002,-10.321991 2.932999,-13.975998z" stroke-width="0.1" stroke-miterlimit="10" stroke="#000000" fill="none" id="svg_8"/>
     <path d="m98.081001,135.091995c4.256996,-3.604996 10.543999,-3.25499 15.494995,-1.451996c4.974007,2.115005 10.214005,3.749008 14.754997,6.757004c7.05101,4.51799 13.789001,9.584 19.817001,15.403992c6.811005,5.506012 13.136002,11.64801 18.556,18.540009c4,4.705002 8.17601,10.201996 7.861008,16.718002c-2.955002,9.493988 -11.089996,16.434998 -19.553009,21.080994c-11.223999,5.707001 -23.742996,7.970993 -35.738991,11.473007c-5.188004,1.674988 -10.634003,2.284988 -16.028999,2.865997c-6.109001,0.330002 -12.251007,1.589996 -18.356003,0.509003c3.912003,-2.843002 8.648003,-4.108002 12.947998,-6.214005c12.347,-5.330002 23.968002,-12.164001 35.998001,-18.153c5.095993,-2.466995 10.087006,-5.611008 13.001007,-10.634003c-0.156006,-1.104004 -0.308014,-2.205002 -0.455002,-3.302994c-3.425003,-3.46701 -7.653,-5.945007 -12.011002,-8.044998c-5.085007,4.202988 -10.947006,7.399994 -15.631004,12.091995c-12.853996,9.567993 -27.062996,17.069 -40.751999,25.345993c-18.428001,10.35701 -35.862,22.431 -54.639999,32.177002c-1.094,0.391998 -2.215,0.697006 -3.362001,0.916c7.211,-7.856995 15.608,-14.543991 22.708002,-22.509003c10.245998,-10.731995 20.491997,-21.470001 31.181999,-31.763992c11.290001,-10.871002 22.263,-22.061996 32.725998,-33.733002c-4.413002,-4.080002 -10.111,-7.839005 -11.451996,-14.096008c-1.275002,-4.731995 -0.525002,-10.321991 2.932999,-13.975998z" id="svg_9"/>
    </g>
   </g>
  </g>
 </g>
</svg>